<mxfile host="app.diagrams.net" modified="2024-11-20T12:47:43.100Z" agent="Mozilla/5.0 (Windows NT 10.0; Win64; x64) AppleWebKit/537.36 (KHTML, like Gecko) Chrome/131.0.0.0 Safari/537.36" version="24.5.4" etag="5ie_guSmmmZGRSpNXRnX" type="github">
  <diagram name="Page-1" id="_x-Qw2-rp9U81Yi0dexQ">
    <mxGraphModel>
      <root>
        <mxCell id="0" />
        <mxCell id="1" parent="0" />
      </root>
    </mxGraphModel>
  </diagram>
</mxfile>
